<svg aria-hidden="true" style="position: absolute; width: 0; height: 0; overflow: hidden;" version="1.1" xmlns="http://www.w3.org/2000/svg" xmlns:xlink="http://www.w3.org/1999/xlink">
<defs>
<symbol id="star" viewBox="0 0 32 32">
<path  d="M15.85 0.006c0.552 0.104 0.705 0.588 0.9 0.998 1.34 2.815 2.698 5.622 3.98 8.463 0.547 1.211 1.369 1.969 2.612 2.447 2.592 0.997 5.143 2.1 7.706 3.173 0.382 0.16 0.915 0.263 0.95 0.754 0.038 0.524-0.516 0.629-0.882 0.803-2.97 1.416-5.938 2.838-8.93 4.207-1.086 0.497-1.752 1.262-2.186 2.362-1.017 2.582-2.103 5.139-3.176 7.699-0.176 0.42-0.269 1.037-0.79 1.078-0.64 0.050-0.72-0.643-0.927-1.075-1.405-2.925-2.802-5.855-4.161-8.803-0.459-0.995-1.158-1.631-2.172-2.034-2.581-1.027-5.143-2.102-7.705-3.176-0.45-0.189-1.093-0.277-1.069-0.934 0.020-0.552 0.589-0.687 1-0.883 2.893-1.378 5.784-2.762 8.698-4.096 1.044-0.478 1.684-1.219 2.103-2.273 1.024-2.58 2.106-5.137 3.178-7.699 0.176-0.419 0.292-0.917 0.871-1.013z"></path>
</symbol>
<symbol id="heart" viewBox="0 0 32 32">
<path d="M16.279 11.688c0.013-0.042 0.028-0.083 0.039-0.125 0.283-1.022 0.551-2.049 0.852-3.066 0.321-1.085 0.728-2.138 1.257-3.141 0.476-0.904 1.055-1.735 1.778-2.461 0.959-0.961 2.058-1.697 3.363-2.104 0.73-0.227 1.476-0.317 2.236-0.254 1.125 0.093 2.127 0.509 3.021 1.192 0.902 0.691 1.591 1.56 2.122 2.558 0.508 0.955 0.831 1.969 0.978 3.040 0.089 0.646 0.091 1.295 0.045 1.945-0.122 1.733-0.623 3.365-1.311 4.948-0.559 1.286-1.244 2.506-1.949 3.716-1.19 2.043-2.634 3.894-4.235 5.626-1.020 1.103-2.083 2.162-3.151 3.217-1.482 1.463-2.964 2.925-4.341 4.49-0.058 0.065-0.115 0.13-0.173 0.195-0.006 0.006-0.015 0.008-0.033 0.017-0.040-0.030-0.083-0.063-0.125-0.097-2.073-1.654-4.054-3.411-5.945-5.272-2.851-2.804-5.468-5.812-7.847-9.025-0.63-0.85-1.225-1.723-1.722-2.659-0.42-0.791-0.76-1.613-0.958-2.489-0.14-0.62-0.207-1.246-0.17-1.88 0.060-1.030 0.374-1.981 0.915-2.858 0.763-1.235 1.814-2.156 3.098-2.82 0.791-0.409 1.628-0.677 2.511-0.799 1.045-0.145 2.072-0.051 3.080 0.255 1.353 0.41 2.529 1.126 3.544 2.1 1.594 1.53 2.611 3.384 3.057 5.549 0.013 0.066 0.028 0.132 0.041 0.198 0.008 0.001 0.017 0.002 0.024 0.003z"></path>
</symbol>
<symbol id="clover" viewBox="0 0 32 32">
<path d="M13.239 13.247c-0.932-1.871-1.872-3.524-2.598-5.267-1.078-2.589-0.317-5.147 1.853-6.803 2.049-1.562 5.059-1.529 7.119 0.079 2.184 1.704 2.867 4.196 1.728 6.831-0.724 1.676-1.635 3.27-2.583 5.14 1.881-0.936 3.52-1.844 5.233-2.581 2.575-1.109 5.175-0.371 6.833 1.806 1.539 2.021 1.572 4.931 0.080 6.968-1.603 2.189-4.248 2.989-6.797 1.997-0.948-0.369-1.859-0.842-2.763-1.312-0.821-0.427-1.611-0.914-2.624-1.495 1.006 2.054 1.981 3.827 2.756 5.683 0.972 2.326 0.159 4.888-1.878 6.472-1.94 1.509-4.731 1.613-6.824 0.255-2.12-1.376-3.121-3.928-2.374-6.322 0.32-1.027 0.811-2.006 1.286-2.977 0.434-0.886 0.952-1.731 1.652-2.988-1.985 0.988-3.514 1.841-5.116 2.527-2.721 1.167-5.324 0.49-7.022-1.706-1.6-2.067-1.597-5.055 0.005-7.126 1.719-2.221 4.289-2.89 7.025-1.697 1.661 0.725 3.247 1.623 5.011 2.516z"></path>
</symbol>
<symbol id="flower" viewBox="0 0 32 32">
<path d="M9.81 8.74c0.52-5.565 2.317-7.869 6.054-7.926 3.85-0.058 5.666 2.156 6.313 7.849 0.839-0.202 1.663-0.412 2.492-0.598 3.127-0.701 6.036 0.861 7.023 3.764 0.998 2.933-0.497 6.117-3.474 7.363-0.701 0.293-1.426 0.53-2.347 0.868 0.436 0.667 0.842 1.268 1.227 1.881 1.732 2.76 1.169 6.155-1.325 8.014-2.563 1.911-5.887 1.572-8.098-0.842-0.55-0.6-1.048-1.249-1.668-1.994-0.627 0.739-1.166 1.421-1.754 2.061-2.116 2.301-5.463 2.65-7.964 0.85-2.476-1.782-3.134-5.061-1.543-7.818 0.409-0.708 0.899-1.37 1.404-2.131-0.91-0.34-1.753-0.607-2.556-0.963-2.87-1.272-4.255-4.371-3.289-7.288 0.961-2.901 3.928-4.495 7.024-3.758 0.804 0.191 1.595 0.428 2.481 0.668z"></path>
</symbol>
</defs>
</svg>
