<svg aria-hidden="true" style="position: absolute; width: 0; height: 0; overflow: hidden;" version="1.1" xmlns="http://www.w3.org/2000/svg" xmlns:xlink="http://www.w3.org/1999/xlink">
<defs>
<symbol id="cog" viewBox="0 0 32 32">
<path d="M26.7 12.754c-0.004 0.218-0.087 0.388-0.246 0.523-0.415 0.351-0.83 0.701-1.245 1.052-0.282 0.238-0.568 0.471-0.842 0.717-0.55 0.493-0.557 1.398-0.012 1.895 0.325 0.296 0.668 0.572 1.003 0.856 0.376 0.319 0.755 0.632 1.125 0.957 0.207 0.182 0.268 0.422 0.182 0.685-0.396 1.217-0.984 2.334-1.768 3.345-0.178 0.23-0.367 0.451-0.558 0.669-0.201 0.232-0.471 0.294-0.761 0.191-0.566-0.202-1.132-0.404-1.699-0.605-0.285-0.102-0.57-0.208-0.858-0.301-0.677-0.218-1.424 0.164-1.636 0.844-0.063 0.204-0.093 0.418-0.132 0.628-0.134 0.721-0.265 1.443-0.397 2.164-0.052 0.286-0.252 0.487-0.539 0.545-0.588 0.12-1.182 0.197-1.782 0.225-0.648 0.030-1.293 0.010-1.935-0.077-0.306-0.041-0.61-0.095-0.914-0.149-0.289-0.052-0.488-0.252-0.542-0.541-0.119-0.637-0.234-1.275-0.35-1.913-0.045-0.246-0.084-0.494-0.137-0.739-0.173-0.796-0.978-1.24-1.748-0.968-0.83 0.294-1.659 0.59-2.488 0.886-0.289 0.103-0.556 0.036-0.762-0.192-0.628-0.697-1.162-1.46-1.599-2.291-0.291-0.552-0.534-1.125-0.724-1.72-0.085-0.268-0.026-0.509 0.186-0.693 0.419-0.365 0.847-0.72 1.272-1.079 0.28-0.237 0.565-0.468 0.838-0.714 0.554-0.497 0.559-1.404 0.008-1.903-0.326-0.295-0.668-0.572-1.004-0.856-0.372-0.316-0.749-0.627-1.117-0.95-0.208-0.182-0.269-0.422-0.184-0.684 0.373-1.15 0.918-2.213 1.643-3.18 0.219-0.292 0.456-0.57 0.694-0.847 0.193-0.223 0.445-0.285 0.721-0.189 0.669 0.232 1.334 0.474 2.002 0.71 0.191 0.068 0.381 0.141 0.576 0.202 0.76 0.236 1.541-0.23 1.692-1.012 0.131-0.679 0.25-1.361 0.374-2.041 0.036-0.196 0.070-0.393 0.109-0.589 0.056-0.285 0.254-0.479 0.54-0.538 0.578-0.117 1.16-0.194 1.749-0.223 0.691-0.034 1.38-0.010 2.065 0.087 0.273 0.038 0.545 0.087 0.816 0.137 0.302 0.056 0.491 0.266 0.549 0.586 0.147 0.808 0.294 1.615 0.445 2.422 0.028 0.149 0.061 0.301 0.116 0.44 0.196 0.49 0.723 0.816 1.251 0.792 0.15-0.007 0.294-0.037 0.436-0.088 0.824-0.294 1.649-0.588 2.473-0.881 0.284-0.101 0.55-0.031 0.751 0.193 0.687 0.763 1.261 1.604 1.718 2.524 0.239 0.483 0.442 0.98 0.609 1.491 0.012 0.035 0.020 0.070 0.026 0.106 0.008 0.033 0.008 0.066 0.010 0.089zM16.005 12.742c-1.8-0.001-3.261 1.455-3.263 3.249-0.002 1.798 1.455 3.264 3.242 3.265 1.814 0.001 3.273-1.452 3.274-3.261 0.001-1.791-1.461-3.253-3.254-3.254z"></path>
</symbol>
<symbol id="color" viewBox="0 0 32 32">
<path d="M14.472 4.531c0.399 0.097 0.81 0.159 1.194 0.297 1.886 0.679 3.133 2.424 3.164 4.432 0.020 1.349 0.007 2.698 0.002 4.047-0.001 0.156 0.048 0.262 0.157 0.37 1.423 1.396 2.842 2.797 4.262 4.196 0.058 0.057 0.124 0.106 0.198 0.169-0.079 0.083-0.132 0.143-0.189 0.2-2.995 2.995-5.991 5.987-8.98 8.987-0.232 0.233-0.47 0.284-0.772 0.202-0.582-0.158-1.089-0.468-1.571-0.806-2.568-1.805-4.757-3.996-6.563-6.564-0.348-0.495-0.669-1.014-0.815-1.615-0.062-0.256-0.031-0.476 0.17-0.678 3.035-3.028 6.065-6.061 9.097-9.093 0.031-0.031 0.065-0.060 0.111-0.102 0.056 0.053 0.111 0.1 0.161 0.152 0.586 0.612 1.172 1.223 1.752 1.84 0.055 0.058 0.102 0.152 0.102 0.23 0.006 1.432 0.004 2.863 0.003 4.295 0 0.022-0.009 0.044-0.006 0.030-0.299 0-0.595-0.041-0.874 0.009-0.548 0.097-0.978 0.58-1.059 1.119-0.089 0.595 0.185 1.164 0.705 1.464 0.511 0.295 1.117 0.271 1.552-0.103 0.181-0.156 0.304-0.379 0.451-0.573 0.269-0.353 0.179-0.764 0.179-1.159 0.003-1.626 0.007-3.253 0.008-4.879 0.001-0.607 0.010-1.215-0.010-1.821-0.049-1.475-1.294-2.68-2.794-2.718-1.496-0.038-2.803 1.108-2.922 2.579-0.018 0.217-0.090 0.368-0.244 0.517-0.508 0.488-1 0.993-1.498 1.491-0.051 0.051-0.106 0.099-0.184 0.172-0.006-0.096-0.016-0.159-0.015-0.222 0.015-0.778-0.035-1.565 0.063-2.332 0.274-2.143 1.964-3.794 4.097-4.086 0.058-0.008 0.113-0.029 0.169-0.045 0.299 0 0.598 0 0.899 0z"></path>
<path d="M27.471 24.412c-0.119 0.415-0.319 0.774-0.7 1.004-0.46 0.278-0.934 0.305-1.407 0.039-0.506-0.284-0.767-0.726-0.771-1.305-0.006-0.892-0.002-1.784-0.002-2.675 0-1.101-0.003-2.203 0.003-3.304 0.001-0.145-0.040-0.249-0.144-0.353-1.159-1.151-2.312-2.308-3.47-3.46-0.056-0.055-0.137-0.084-0.175-0.16 0.946 0.239 1.808 0.627 2.607 1.149 1.993 1.304 3.159 3.175 3.684 5.46 0.172 0.748 0.228 1.522 0.336 2.285 0.013 0.095 0.024 0.191 0.036 0.286 0.001 0.344 0.001 0.689 0.001 1.034z"></path>
</symbol>
<symbol id="date" viewBox="0 0 32 32">
<path d="M25.635 27.576c-6.419 0-12.838 0-19.256 0-1.391-0.31-1.877-1.245-1.868-2.603 0.037-5.286 0.015-10.573 0.015-15.86 0-0.13 0-0.26 0.005-0.389 0.038-0.885 0.6-1.646 1.439-1.924 0.649-0.215 1.318-0.083 2.009-0.124 0 0.145 0 0.244 0 0.344 0 0.751-0.008 1.503 0.004 2.253 0.004 0.237 0.029 0.486 0.102 0.71 0.301 0.913 1.245 1.471 2.218 1.334 0.98-0.138 1.702-0.952 1.725-1.98 0.018-0.779 0.004-1.558 0.005-2.337 0-0.099 0.008-0.197 0.012-0.294 2.656 0 5.283 0 7.93 0 0 0.125 0 0.227 0 0.327 0 0.76-0.011 1.521 0.003 2.282 0.020 1.162 0.897 2.022 2.037 2.019s2.004-0.872 2.013-2.036c0.006-0.76 0.001-1.521 0.001-2.282 0-0.099 0-0.199 0-0.36 0.623 0.030 1.226-0.010 1.797 0.103 1.032 0.204 1.656 1.086 1.656 2.205 0.002 5.036 0.001 10.072 0.001 15.109 0 0.483 0.008 0.965-0.004 1.447-0.024 0.895-0.608 1.665-1.455 1.939-0.13 0.040-0.262 0.077-0.393 0.116zM25.631 12.292c-6.433 0-12.833 0-19.248 0 0 0.122 0 0.223 0 0.324 0 4.209 0 8.419 0 12.628 0 0.482 0.026 0.509 0.499 0.509 6.083 0 12.164 0 18.247 0 0.475 0 0.502-0.028 0.502-0.506 0-4.219 0-8.437 0-12.656-0.001-0.093-0.001-0.184-0.001-0.3z"></path>
<path d="M10.218 4.424c0.851 0.361 1.050 0.665 1.050 1.607 0 1.102 0.008 2.204-0.003 3.306-0.008 0.836-0.646 1.379-1.468 1.27-0.613-0.081-1.038-0.581-1.052-1.266-0.013-0.602-0.003-1.204-0.004-1.805 0-0.509 0-1.019 0-1.528 0-0.949 0.179-1.222 1.031-1.583 0.149-0.001 0.298-0.001 0.446-0.001z"></path>
<path d="M22.184 4.424c0.031 0.018 0.060 0.041 0.092 0.052 0.612 0.209 0.934 0.637 0.938 1.29 0.007 1.176 0.009 2.352 0 3.528-0.006 0.796-0.524 1.331-1.258 1.327-0.688-0.003-1.255-0.578-1.263-1.323-0.013-1.204-0.014-2.408 0.001-3.612 0.008-0.685 0.415-1.075 1.044-1.264 0.149 0 0.297 0 0.445 0z"></path>
<path d="M21.648 22.961c-0.417 0-0.834 0.005-1.251-0.002-0.443-0.007-0.639-0.216-0.638-0.653 0.002-0.5-0.002-1.001 0.002-1.501 0.004-0.53 0.218-0.745 0.74-0.746 0.797-0.002 1.594-0.003 2.39 0.001 0.477 0.002 0.697 0.218 0.702 0.696 0.006 0.5 0.005 1.001 0 1.501-0.005 0.49-0.226 0.701-0.723 0.704-0.408 0.002-0.815 0-1.223 0z"></path>
<path d="M21.67 17.86c-0.417 0-0.834 0.006-1.251-0.002-0.487-0.010-0.661-0.198-0.659-0.686 0.002-0.5-0.004-1 0.002-1.501 0.006-0.488 0.232-0.716 0.719-0.718 0.806-0.004 1.612-0.005 2.418 0.001 0.458 0.003 0.689 0.23 0.695 0.681 0.007 0.518 0.007 1.037 0 1.556-0.006 0.444-0.226 0.66-0.673 0.668-0.417 0.006-0.834 0.001-1.251 0.001z"></path>
<path d="M15.986 22.961c-0.417 0-0.834 0.004-1.251-0.001-0.433-0.005-0.67-0.241-0.674-0.672-0.005-0.519-0.005-1.038 0-1.557 0.004-0.433 0.239-0.669 0.674-0.671 0.834-0.004 1.668-0.004 2.502 0 0.417 0.003 0.655 0.241 0.66 0.657 0.006 0.528 0.006 1.057 0 1.585-0.004 0.415-0.244 0.652-0.66 0.658s-0.834 0.002-1.251 0.002z"></path>
<path d="M15.964 17.86c-0.408 0-0.815 0.005-1.223-0.001-0.457-0.008-0.677-0.234-0.68-0.692-0.003-0.509-0.004-1.020 0-1.529 0.004-0.431 0.237-0.678 0.669-0.682 0.834-0.008 1.668-0.009 2.502 0 0.429 0.004 0.663 0.253 0.666 0.684 0.004 0.519 0.005 1.038-0.001 1.556-0.004 0.421-0.232 0.653-0.655 0.662-0.426 0.008-0.852 0.002-1.278 0.002z"></path>
<path d="M10.317 22.961c-0.417 0-0.833 0.005-1.25-0.002-0.446-0.007-0.654-0.23-0.652-0.674 0.003-0.509-0.003-1.018 0.003-1.527 0.005-0.478 0.225-0.696 0.699-0.698 0.815-0.003 1.629-0.003 2.444 0 0.444 0.002 0.678 0.219 0.687 0.655 0.012 0.527 0.011 1.055 0.001 1.583-0.008 0.438-0.242 0.655-0.682 0.663-0.019 0.001-0.037 0-0.056 0-0.397 0.001-0.796 0.001-1.194 0z"></path>
<path d="M10.316 17.86c-0.407 0-0.815 0.005-1.222-0.001-0.486-0.008-0.681-0.216-0.678-0.703 0.003-0.5-0.003-1 0.002-1.5 0.005-0.472 0.23-0.7 0.701-0.703 0.805-0.005 1.61-0.004 2.415 0 0.485 0.003 0.711 0.23 0.717 0.719 0.006 0.5 0.007 1-0.001 1.5-0.007 0.461-0.227 0.68-0.685 0.687-0.416 0.006-0.833 0.001-1.249 0.001z"></path>
</symbol>
<symbol id="shape" viewBox="0 0 32 32">
<path d="M22.24 5.546c-0.064 0-0.127 0.001-0.191 0.003-0.006 0-0.013 0-0.019 0.001-0.046 0.001-0.093 0.003-0.139 0.005-0.022 0.001-0.045 0.002-0.067 0.003-0.056 0.003-0.112 0.006-0.168 0.011-0.060 0.004-0.119 0.010-0.179 0.015-0.049 0.005-0.098 0.010-0.147 0.017-0.035 0.004-0.071 0.008-0.106 0.013-0.122 0.016-0.243 0.035-0.364 0.058-0.049 0.008-0.097 0.018-0.145 0.028-0.004 0.001-0.007 0.001-0.010 0.002-0.059 0.012-0.117 0.024-0.175 0.038-0.002 0-0.003 0.001-0.005 0.001-0.042 0.009-0.084 0.019-0.126 0.030-0.033 0.008-0.065 0.016-0.097 0.025-0.046 0.012-0.092 0.024-0.138 0.038-0.054 0.015-0.108 0.031-0.161 0.048-0.012 0.003-0.023 0.007-0.034 0.010-0.039 0.012-0.079 0.025-0.118 0.038-0.109 0.036-0.218 0.075-0.324 0.116-0.037 0.014-0.074 0.029-0.111 0.044-0.013 0.005-0.026 0.010-0.038 0.015-0.035 0.015-0.070 0.029-0.105 0.044-0.045 0.019-0.091 0.039-0.136 0.059-0.041 0.019-0.082 0.038-0.122 0.057-0.030 0.014-0.060 0.028-0.090 0.043-0.029 0.013-0.059 0.028-0.088 0.044-0.026 0.012-0.051 0.026-0.076 0.038-0.086 0.045-0.172 0.091-0.256 0.139-0.038 0.021-0.076 0.043-0.113 0.065-0.040 0.024-0.080 0.048-0.12 0.072-0.12 0.073-0.237 0.15-0.351 0.23v5.488l0.695 1.408 7.056 1.025c0.338 0.049 0.618 0.285 0.724 0.61s0.017 0.68-0.227 0.918l-4.461 4.348c0.069 0.006 0.139 0.010 0.209 0.012 0.038 0.002 0.076 0.003 0.113 0.004 0.012 0.001 0.022 0.001 0.034 0.001 0.059 0.002 0.118 0.003 0.178 0.003 4.189 0 7.584-3.395 7.584-7.584s-3.395-7.584-7.584-7.584z"></path>
<path d="M2.917 15.428c0.106-0.324 0.386-0.561 0.724-0.61l7.056-1.025 3.156-6.394c0.15-0.306 0.462-0.499 0.803-0.499s0.653 0.193 0.803 0.499l0.193 0.391 0.442 0.896 0.93 1.884v-7.071h-14.848v14.848h3.020l-2.051-1.999c-0.244-0.238-0.332-0.595-0.227-0.918z"></path>
<path d="M20.099 21.011l5.443-5.306-7.523-1.093-3.364-6.816-3.364 6.816-7.523 1.093 5.443 5.306-1.285 7.492 6.728-3.537 6.728 3.537-1.226-7.149z"></path>
</symbol>
</defs>
</svg>
